<mxfile host="app.diagrams.net" modified="2021-10-29T07:16:21.335Z" agent="5.0 (Windows NT 10.0; Win64; x64) AppleWebKit/537.36 (KHTML, like Gecko) Chrome/95.0.4638.54 Safari/537.36" etag="wDERnO2BiDFwGeRNH3gb" version="15.4.1" type="github">
  <diagram id="OqyBse7GaDoZeRs3GdMK" name="Page-1">
    <mxGraphModel dx="4483" dy="781" grid="1" gridSize="10" guides="1" tooltips="1" connect="1" arrows="1" fold="1" page="1" pageScale="1" pageWidth="3000" pageHeight="3300" math="0" shadow="0">
      <root>
        <mxCell id="0" />
        <mxCell id="1" parent="0" />
        <mxCell id="7JbgYdYsLvJ01vUSYbGL-1" value="PaymentForm" style="shape=umlBoundary;whiteSpace=wrap;html=1;" vertex="1" parent="1">
          <mxGeometry x="370" y="800" width="100" height="80" as="geometry" />
        </mxCell>
        <mxCell id="7JbgYdYsLvJ01vUSYbGL-2" value="RushOrderScreen&lt;br&gt;" style="shape=umlBoundary;whiteSpace=wrap;html=1;" vertex="1" parent="1">
          <mxGeometry x="585" y="790" width="130" height="100" as="geometry" />
        </mxCell>
        <mxCell id="7JbgYdYsLvJ01vUSYbGL-3" value="DeliveryForm" style="shape=umlBoundary;whiteSpace=wrap;html=1;" vertex="1" parent="1">
          <mxGeometry x="600" y="600" width="100" height="80" as="geometry" />
        </mxCell>
        <mxCell id="7JbgYdYsLvJ01vUSYbGL-4" value="SearchMediaScreen" style="shape=umlBoundary;whiteSpace=wrap;html=1;" vertex="1" parent="1">
          <mxGeometry x="50" y="580" width="160" height="130" as="geometry" />
        </mxCell>
        <mxCell id="7JbgYdYsLvJ01vUSYbGL-6" value="HomeScreen" style="shape=umlBoundary;whiteSpace=wrap;html=1;" vertex="1" parent="1">
          <mxGeometry x="-190" y="810" width="100" height="80" as="geometry" />
        </mxCell>
        <mxCell id="7JbgYdYsLvJ01vUSYbGL-7" value="CartScreen" style="shape=umlBoundary;whiteSpace=wrap;html=1;" vertex="1" parent="1">
          <mxGeometry x="80" y="980" width="100" height="80" as="geometry" />
        </mxCell>
        <mxCell id="7JbgYdYsLvJ01vUSYbGL-8" value="DetailMediaScreen" style="shape=umlBoundary;whiteSpace=wrap;html=1;" vertex="1" parent="1">
          <mxGeometry x="50" y="770" width="150" height="130" as="geometry" />
        </mxCell>
        <mxCell id="7JbgYdYsLvJ01vUSYbGL-9" value="" style="endArrow=open;endFill=1;endSize=12;html=1;rounded=0;edgeStyle=orthogonalEdgeStyle;entryX=0.004;entryY=0.523;entryDx=0;entryDy=0;entryPerimeter=0;" edge="1" parent="1" source="7JbgYdYsLvJ01vUSYbGL-6" target="7JbgYdYsLvJ01vUSYbGL-7">
          <mxGeometry width="160" relative="1" as="geometry">
            <mxPoint x="-130" y="890" as="sourcePoint" />
            <mxPoint x="70" y="1030" as="targetPoint" />
            <Array as="points">
              <mxPoint x="-130" y="1022" />
            </Array>
          </mxGeometry>
        </mxCell>
        <mxCell id="7JbgYdYsLvJ01vUSYbGL-11" value="" style="endArrow=open;endFill=1;endSize=12;html=1;rounded=0;edgeStyle=orthogonalEdgeStyle;exitX=0.664;exitY=-0.027;exitDx=0;exitDy=0;exitPerimeter=0;entryX=-0.005;entryY=0.472;entryDx=0;entryDy=0;entryPerimeter=0;" edge="1" parent="1" source="7JbgYdYsLvJ01vUSYbGL-6" target="7JbgYdYsLvJ01vUSYbGL-4">
          <mxGeometry width="160" relative="1" as="geometry">
            <mxPoint x="240" y="710" as="sourcePoint" />
            <mxPoint x="400" y="710" as="targetPoint" />
            <Array as="points">
              <mxPoint x="-124" y="641" />
            </Array>
          </mxGeometry>
        </mxCell>
        <mxCell id="7JbgYdYsLvJ01vUSYbGL-12" value="" style="endArrow=open;endFill=1;endSize=12;html=1;rounded=0;edgeStyle=orthogonalEdgeStyle;entryX=-0.003;entryY=0.512;entryDx=0;entryDy=0;entryPerimeter=0;exitX=0.992;exitY=0.373;exitDx=0;exitDy=0;exitPerimeter=0;" edge="1" parent="1" source="7JbgYdYsLvJ01vUSYbGL-6" target="7JbgYdYsLvJ01vUSYbGL-8">
          <mxGeometry width="160" relative="1" as="geometry">
            <mxPoint x="-130" y="895" as="sourcePoint" />
            <mxPoint x="59.19999999999982" y="651.3599999999999" as="targetPoint" />
            <Array as="points">
              <mxPoint x="-91" y="837" />
            </Array>
          </mxGeometry>
        </mxCell>
        <mxCell id="7JbgYdYsLvJ01vUSYbGL-13" value="" style="endArrow=open;endFill=1;endSize=12;html=1;rounded=0;edgeStyle=orthogonalEdgeStyle;entryX=-0.032;entryY=0.498;entryDx=0;entryDy=0;entryPerimeter=0;" edge="1" parent="1" source="7JbgYdYsLvJ01vUSYbGL-7" target="7JbgYdYsLvJ01vUSYbGL-1">
          <mxGeometry width="160" relative="1" as="geometry">
            <mxPoint x="240" y="710" as="sourcePoint" />
            <mxPoint x="400" y="710" as="targetPoint" />
            <Array as="points">
              <mxPoint x="310" y="1030" />
              <mxPoint x="310" y="840" />
            </Array>
          </mxGeometry>
        </mxCell>
        <mxCell id="7JbgYdYsLvJ01vUSYbGL-14" value="" style="endArrow=open;endFill=1;endSize=12;html=1;rounded=0;edgeStyle=orthogonalEdgeStyle;exitX=1.016;exitY=0.538;exitDx=0;exitDy=0;exitPerimeter=0;" edge="1" parent="1" source="7JbgYdYsLvJ01vUSYbGL-1" target="7JbgYdYsLvJ01vUSYbGL-2">
          <mxGeometry width="160" relative="1" as="geometry">
            <mxPoint x="195" y="850" as="sourcePoint" />
            <mxPoint x="376.8000000000002" y="849.8399999999999" as="targetPoint" />
            <Array as="points">
              <mxPoint x="530" y="843" />
              <mxPoint x="530" y="843" />
            </Array>
          </mxGeometry>
        </mxCell>
        <mxCell id="7JbgYdYsLvJ01vUSYbGL-15" value="" style="endArrow=open;endFill=1;endSize=12;html=1;rounded=0;edgeStyle=orthogonalEdgeStyle;entryX=0.012;entryY=0.488;entryDx=0;entryDy=0;entryPerimeter=0;exitX=0.664;exitY=-0.032;exitDx=0;exitDy=0;exitPerimeter=0;" edge="1" parent="1" source="7JbgYdYsLvJ01vUSYbGL-1" target="7JbgYdYsLvJ01vUSYbGL-3">
          <mxGeometry width="160" relative="1" as="geometry">
            <mxPoint x="205" y="860" as="sourcePoint" />
            <mxPoint x="386.8000000000002" y="859.8399999999999" as="targetPoint" />
            <Array as="points">
              <mxPoint x="436" y="639" />
            </Array>
          </mxGeometry>
        </mxCell>
        <mxCell id="7JbgYdYsLvJ01vUSYbGL-16" value="" style="endArrow=open;endFill=1;endSize=12;html=1;rounded=0;edgeStyle=orthogonalEdgeStyle;entryX=0.628;entryY=1.008;entryDx=0;entryDy=0;entryPerimeter=0;" edge="1" parent="1" source="7JbgYdYsLvJ01vUSYbGL-2" target="7JbgYdYsLvJ01vUSYbGL-3">
          <mxGeometry width="160" relative="1" as="geometry">
            <mxPoint x="240" y="710" as="sourcePoint" />
            <mxPoint x="400" y="710" as="targetPoint" />
            <Array as="points">
              <mxPoint x="663" y="760" />
              <mxPoint x="663" y="760" />
            </Array>
          </mxGeometry>
        </mxCell>
        <mxCell id="7JbgYdYsLvJ01vUSYbGL-19" value="" style="endArrow=open;endFill=1;endSize=12;html=1;rounded=0;edgeStyle=orthogonalEdgeStyle;entryX=0.571;entryY=1.017;entryDx=0;entryDy=0;entryPerimeter=0;" edge="1" parent="1" source="7JbgYdYsLvJ01vUSYbGL-7" target="7JbgYdYsLvJ01vUSYbGL-8">
          <mxGeometry width="160" relative="1" as="geometry">
            <mxPoint x="491.60000000000036" y="863.04" as="sourcePoint" />
            <mxPoint x="605" y="863" as="targetPoint" />
            <Array as="points">
              <mxPoint x="136" y="960" />
              <mxPoint x="136" y="960" />
            </Array>
          </mxGeometry>
        </mxCell>
        <mxCell id="7JbgYdYsLvJ01vUSYbGL-20" value="" style="endArrow=open;endFill=1;endSize=12;html=1;rounded=0;edgeStyle=orthogonalEdgeStyle;exitX=0.56;exitY=1.014;exitDx=0;exitDy=0;exitPerimeter=0;entryX=0.603;entryY=0.014;entryDx=0;entryDy=0;entryPerimeter=0;" edge="1" parent="1" source="7JbgYdYsLvJ01vUSYbGL-4" target="7JbgYdYsLvJ01vUSYbGL-8">
          <mxGeometry width="160" relative="1" as="geometry">
            <mxPoint x="140" y="700" as="sourcePoint" />
            <mxPoint x="300" y="700" as="targetPoint" />
          </mxGeometry>
        </mxCell>
      </root>
    </mxGraphModel>
  </diagram>
</mxfile>
